<?xml version="1.0" encoding="utf-8"?>
<!-- Generator: Adobe Illustrator 22.0.0, SVG Export Plug-In . SVG Version: 6.00 Build 0)  -->
<svg version="1.1" xmlns="http://www.w3.org/2000/svg" xmlns:xlink="http://www.w3.org/1999/xlink" x="0px" y="0px"
	 viewBox="0 0 1078 363.3" style="enable-background:new 0 0 1078 363.3;" xml:space="preserve">
<style type="text/css">
	.st0{display:none;}
	.st1{display:inline;}
</style>
<g id="Layer_1">
	<g>
		<g>
			<polygon points="997,137.8 841.4,171.9 887.8,117 869.1,113.4 806.3,179.6 806.2,201.9 1065.8,150.9 			"/>
		</g>
		<g>
			<polygon points="572.2,7.6 560.7,13.6 560.7,67.6 572.2,62.4 			"/>
		</g>
		<g>
			<polygon points="1081,118.1 920.1,78.8 958.3,33.6 948.2,30.3 905.5,75.2 590.3,-1.9 578,4.5 578,59.8 590.1,54.4 1081,147.9 			
				"/>
		</g>
	</g>
	<g>
		<path d="M-1.5,318.4l5.8-12.9c8.7,4.2,17.1,6.4,25,6.4c6.2,0,11.1-1.1,14.7-3.3c3.7-2.2,5.5-5.1,5.5-8.7c0-6.4-6.9-11.8-20.8-16.2
			c-20.4-6.7-30.6-16-30.6-28.1c0-8.5,3.2-15.1,9.5-19.9c6.4-4.8,15-7.2,25.9-7.2c4.4,0,9.5,0.8,15.5,2.5c6,1.7,10.8,3.8,14.5,6.4
			l-5.8,12.5c-4.5-2.1-8.6-3.6-12.3-4.7c-3.7-1.1-7.8-1.6-12.3-1.6c-4.9,0-8.9,1.1-12,3.4c-3.1,2.2-4.7,5-4.7,8.4
			c0.1,2.6,1.8,4.9,5.1,7.1c3.3,2.2,8,4.3,14.2,6.4c21,7.6,31.6,17.6,31.6,30.2c0,8.9-3.3,15.7-9.8,20.6c-6.5,4.9-15.9,7.3-28.1,7.3
			c-4.5,0-9.9-0.8-16.1-2.3C7,323.1,2.1,321-1.5,318.4z"/>
		<path d="M103.6,336.1l5.4-14.2l-34.1-87.8l17.5-6.5l26,70.5l24.6-67h19.1l-41.4,110.3c-2.3,6.3-6.4,11.7-12.3,16.3
			c-5.9,4.6-12.6,7.7-20,9.3l-6.2-14.2c6.2-2.7,10.9-5.2,14.2-7.4C99.8,343,102.2,340,103.6,336.1z"/>
		<path d="M308.1,237.5c4.9,6.4,7.3,14.8,7.3,25.3v61.6h-18.5v-59.9c0-6.7-1.1-11.8-3.4-15.4c-2.2-3.6-6-5.4-11.3-5.4
			c-3.7,0-8,1.3-12.7,3.8c-4.7,2.5-9.5,5.8-14.2,9.9c0.1,1.2,0.2,3,0.2,5.4v61.6H237v-59.9c0-6.7-1.1-11.8-3.4-15.4
			c-2.2-3.6-6-5.4-11.3-5.4c-4,0-8.4,1.4-13.4,4.1c-4.9,2.8-9.9,6.3-14.9,10.7v65.8h-18.5V231h12.9l3.3,12.3
			c4.9-4.5,10.4-8.2,16.7-11.1c6.2-2.9,12.2-4.3,17.8-4.3c6.2,0,11.4,1.3,15.7,4c4.3,2.7,7.5,6.5,9.7,11.4
			c4.9-4.5,10.4-8.2,16.7-11.1c6.2-2.9,12.2-4.3,17.8-4.3C295.9,227.9,303.2,231.1,308.1,237.5z"/>
		<path d="M470.2,237.5c4.9,6.4,7.3,14.8,7.3,25.3v61.6H459v-59.9c0-6.7-1.1-11.8-3.4-15.4c-2.2-3.6-6-5.4-11.3-5.4
			c-3.7,0-8,1.3-12.7,3.8c-4.7,2.5-9.5,5.8-14.2,9.9c0.1,1.2,0.2,3,0.2,5.4v61.6h-18.5v-59.9c0-6.7-1.1-11.8-3.4-15.4
			c-2.2-3.6-6-5.4-11.3-5.4c-4,0-8.4,1.4-13.4,4.1c-4.9,2.8-9.9,6.3-14.9,10.7v65.8h-18.5V231h12.9l3.3,12.3
			c4.9-4.5,10.4-8.2,16.7-11.1c6.2-2.9,12.2-4.3,17.8-4.3c6.2,0,11.4,1.3,15.7,4c4.3,2.7,7.5,6.5,9.7,11.4
			c4.9-4.5,10.4-8.2,16.7-11.1c6.2-2.9,12.2-4.3,17.8-4.3C458,227.9,465.3,231.1,470.2,237.5z"/>
		<path d="M508.9,214.3c-3.2,0-5.9-1.1-8.1-3.4c-2.2-2.2-3.3-5-3.3-8.2c0-3.2,1.1-5.9,3.3-8.2c2.2-2.2,4.9-3.4,8.1-3.4
			c3.2,0,6,1.1,8.3,3.4c2.3,2.2,3.5,5,3.5,8.2c0,3.2-1.2,5.9-3.5,8.2C514.9,213.2,512.1,214.3,508.9,214.3z M499.8,324.4V231h18.7
			v93.4H499.8z"/>
		<path d="M543.5,324.4V190.6l18.5-2.1v80.7l41.6-40.6l10.8,12.3l-27.7,26.6l37.2,57h-21.6L574,279.3L562,290.9v33.5H543.5z"/>
		<path d="M675.4,232.2l5.8,14.1h-22.7v49.3c0,5,1.1,9,3.3,11.8c2.2,2.9,5.5,4.3,10,4.3c2.3,0,5.3-0.7,9-2.1l4.8,14.1
			c-1.9,1-4.4,2-7.4,2.8c-3,0.8-5.8,1.3-8.4,1.3c-9.2,0-16.5-2.5-21.9-7.6c-5.3-5.1-8-12.3-8-21.7v-52.2h-13.1l-0.2-14.1H640v-23.3
			l18.5-4.2v27.5H675.4z"/>
		<path d="M782.8,303.4c-3.9,7.4-9.3,13.2-16.5,17.3c-7.1,4.1-15.4,6.2-24.9,6.2c-9.4,0-17.6-2.1-24.5-6.2
			c-7-4.1-12.4-9.9-16.1-17.3c-3.7-7.4-5.6-16-5.6-25.8c0-9.6,1.9-18.2,5.8-25.6c3.9-7.4,9.3-13.2,16.4-17.3
			c7.1-4.1,15.3-6.2,24.8-6.2c9.4,0,17.5,2.1,24.5,6.2c7,4.1,12.4,9.9,16.2,17.3c3.8,7.4,5.7,16,5.7,25.8
			C788.6,287.4,786.7,296,782.8,303.4z M762,301.7c5.1-6.3,7.7-14.2,7.8-23.7c0-10-2.4-18.1-7.3-24.4c-4.9-6.2-11.6-9.3-20.2-9.3
			c-8.5,0-15.2,3.1-20.3,9.4c-5.1,6.3-7.7,14.2-7.8,23.7c0,10,2.4,18.1,7.3,24.4c4.9,6.2,11.6,9.3,20.2,9.3
			C750.1,311.1,756.9,308,762,301.7z"/>
		<path d="M824.4,324.4h-18.5V231h12.9l3.3,12.3c5-4.5,10.7-8.2,16.9-11.1c6.3-2.9,12.5-4.3,18.7-4.3c10.1,0,17.7,3.1,22.6,9.4
			c4.9,6.3,7.4,14.8,7.4,25.4v61.6h-18.5v-59.9c0-6.8-1.1-12-3.4-15.5c-2.2-3.5-6.3-5.3-12-5.3c-4.4,0-9.1,1.4-14.2,4.1
			c-5.1,2.8-10.2,6.3-15.2,10.7V324.4z"/>
		<path d="M946.5,321.1l3.2-7.2c4.9,2.4,9.5,3.5,14,3.5c3.4,0,6.2-0.6,8.2-1.8c2-1.2,3.1-2.8,3.1-4.8c0-3.6-3.9-6.6-11.6-9
			c-11.4-3.7-17.1-9-17.1-15.7c0-4.7,1.8-8.4,5.3-11.1c3.5-2.7,8.4-4,14.5-4c2.4,0,5.3,0.5,8.7,1.4c3.3,0.9,6,2.1,8.1,3.5l-3.2,7
			c-2.5-1.1-4.8-2-6.9-2.6c-2.1-0.6-4.4-0.9-6.9-0.9c-2.7,0-5,0.6-6.7,1.9c-1.8,1.3-2.6,2.8-2.6,4.7c0.1,1.4,1,2.8,2.8,4
			c1.8,1.2,4.5,2.4,7.9,3.5c11.7,4.2,17.6,9.9,17.6,16.9c0,4.9-1.8,8.8-5.5,11.5s-8.9,4.1-15.7,4.1c-2.5,0-5.5-0.4-9-1.3
			C951.2,323.6,948.5,322.5,946.5,321.1z"/>
		<path d="M997.8,324.4c-1.9,0-3.4-0.6-4.7-1.9c-1.3-1.3-1.9-2.8-1.9-4.6c0-1.8,0.6-3.3,1.9-4.6c1.3-1.3,2.8-1.9,4.7-1.9
			c1.8,0,3.3,0.6,4.5,1.9c1.2,1.3,1.8,2.8,1.8,4.6c0,1.8-0.6,3.3-1.8,4.6C1001.1,323.8,999.6,324.4,997.8,324.4z"/>
		<path d="M1018.5,283.7l-2.9-8.2c1.9-1.3,4.7-2.4,8.4-3.3c3.8-0.9,6.9-1.3,9.3-1.3c3.9,0,7.5,0.8,10.7,2.4c3.2,1.6,5.8,3.8,7.6,6.6
			c1.8,2.8,2.7,5.8,2.7,9.1v35.4h-7.2l-1.3-4.9c-1.9,1.7-4.3,3.2-7.1,4.4c-2.8,1.2-5.5,1.8-8.2,1.8c-5.9,0-10.5-1.5-13.5-4.5
			c-3.1-3-4.6-6.9-4.6-11.9c0-5.1,1.7-9,5.2-11.9c3.5-2.8,8.1-4.2,13.9-4.2h12.4c0-4.2-0.8-7.5-2.3-9.7c-1.5-2.3-4.2-3.4-8.1-3.4
			C1028.8,280.1,1023.8,281.3,1018.5,283.7z M1021.7,309.4c0,2.2,0.8,4.1,2.3,5.8c1.5,1.6,3.7,2.4,6.4,2.4c2.5,0,4.9-0.6,7.3-1.9
			c2.4-1.3,4.5-2.9,6.3-5v-10.5h-12.7c-3,0-5.4,0.9-7.1,2.7C1022.6,304.6,1021.7,306.8,1021.7,309.4z"/>
		<path d="M1070.2,324.4c-1.9,0-3.4-0.6-4.7-1.9c-1.3-1.3-1.9-2.8-1.9-4.6c0-1.8,0.6-3.3,1.9-4.6c1.3-1.3,2.8-1.9,4.7-1.9
			c1.8,0,3.3,0.6,4.5,1.9c1.2,1.3,1.8,2.8,1.8,4.6c0,1.8-0.6,3.3-1.8,4.6C1073.5,323.8,1072,324.4,1070.2,324.4z"/>
	</g>
</g>
<g id="Layer_2" class="st0">
	<g class="st1">
		<path d="M124.1,344.1h-10c-1.3,0-2-0.7-2-1.8v-61c0-12.9-6.4-23.5-21.9-23.5c-12,0-21.9,11.1-21.9,23.5v60.7c0,1.3-0.4,2-1.8,2
			h-9.8c-1.3,0-2-0.7-2-1.8v-61c0-12.9-8.2-23.5-21.5-23.5c-15.3,0-22.4,10.6-22.4,23.5v60.7c0,1.3-0.4,2-1.8,2H-1
			c-1.1,0-2-0.7-2-1.8v-61c0-20.8,14.9-35.3,35.3-35.3c11.1,0,21.5,4.7,28.2,13.7c0.9,1.1,1.6,1.1,2.4,0.2c6.9-8.6,17.5-14,29.3-14
			c21.1,0,33.7,14.2,33.7,35.3v60.7C125.9,343.4,125.2,344.1,124.1,344.1z"/>
		<path d="M219,298.2h-54.5c-2,0-3.3,1.3-3.3,3.3v7.3c0,13.7,9.5,24.6,24.2,24.6c9.3,0,16.6-4.2,21.5-11.1c1.1-1.6,2.4-1.6,3.8-0.7
			l6.2,4c1.6,1.1,1.8,2,1.3,3.1c-6.7,11.1-18.8,16.6-32.6,16.6c-22.8,0-37.9-14.2-37.9-35.7v-26.6c0-22.4,16.2-37.2,37.5-37.2
			c22.2,0,37.7,14.2,37.7,37.7v10C222.8,296.4,220.8,298.2,219,298.2z M209,281.1c0-13.3-9.5-23.5-23.9-23.5
			c-13.5,0-23.7,10.4-23.7,23.5v3.3c0,1.3,0.9,2.7,3.1,2.7h42.3c1.6,0,2.2-0.7,2.2-2.4V281.1z"/>
		<path d="M249.4,318.6v-57.6c0-1.3-0.7-2-2.2-2h-10.4c-1.3,0-2-0.7-2-1.8v-8c0-1.3,0.7-2,1.8-2h10.6c1.6,0,2.2-0.9,2.2-2.2v-20.4
			c0-0.9,0.4-1.8,1.8-2.2l9.5-2.2c1.6-0.4,2.2,0.7,2.2,1.8v23.3c0,1.3,0.4,2,1.8,2H287c1.1,0,2,0.7,2,1.8v8c0,1.3-0.7,2-2,2h-22.2
			c-1.3,0-2,0.4-2,2v55c0,11.1,3.1,17.1,12.9,17.1c3.5,0,10.4-1.1,13.5-1.8c2.7-0.7,3.1,0.4,3.3,1.8l1.3,6.9c0.4,2,0,2.2-1.6,2.9
			c-4.4,2-13.1,2.7-18.4,2.7C254.9,345.4,249.4,334.1,249.4,318.6z"/>
		<path d="M338,278.9c8,0,15.3,2.4,20.4,6.9c1.6,1.1,3.1,0.7,3.1-1.3v-6.2c0-12-5.3-20.6-21.9-20.6c-6.2,0-17.5,2.2-23.3,5.1
			c-1.1,0.7-2.2,0.2-2.7-1.1l-2.9-7.1c-0.4-1.1,0-2,1.1-2.4c7.5-4,19.3-6.2,29-6.2c25.3,0,34.1,12.9,34.1,34.1v62.1
			c0,1.3-0.7,2-1.8,2h-9.1c-1.3,0-1.6-0.9-1.6-1.6v-6.2c0-2-1.3-2-2.4-0.9c-5.8,6.7-14.2,10-23.9,10c-21.3,0-33-13.5-33-33
			C303.2,293.7,315.4,278.9,338,278.9z M338.3,334.1c13.3,0,22.4-10,22.4-22.4c0-12-7.8-21.9-22.2-21.9c-14.2,0-22.6,10-22.6,22.2
			C315.9,324.3,322.7,334.1,338.3,334.1z"/>
		<path d="M403,202.8h10c1.1,0,1.8,0.7,1.8,1.8v115.1c0,9.5,2.2,12.9,10.2,12.9h2.7c1.8,0,1.8,1.3,1.8,2.7v7.8c0,1.6-0.7,2.2-2,2.4
			c-2.2,0.2-4.2,0.2-5.1,0.2c-17.7,0-21.1-9.5-21.1-24.4V204.8C401.2,203.7,401.7,202.8,403,202.8z"/>
		<path d="M449.1,202.8h10c1.1,0,1.8,0.7,1.8,1.8v115.1c0,9.5,2.2,12.9,10.2,12.9h2.7c1.8,0,1.8,1.3,1.8,2.7v7.8
			c0,1.6-0.7,2.2-2,2.4c-2.2,0.2-4.2,0.2-5.1,0.2c-17.7,0-21.1-9.5-21.1-24.4V204.8C447.3,203.7,447.8,202.8,449.1,202.8z"/>
		<path d="M527.2,345.4c-23.3,0-37.7-13.5-37.7-36.4v-26.8c0-22,15.1-36.4,37.7-36.4c22.4,0,37.5,13.7,37.5,36.4v26.4
			C564.6,331.9,550.4,345.4,527.2,345.4z M551.1,282.4c0-14.2-8.6-24.6-23.9-24.6c-15.5,0-24.2,10.2-24.2,24.4v26.6
			c0,14.9,8.6,24.8,24.2,24.8c16,0,23.7-10,23.9-24.8V282.4z"/>
		<path d="M635.4,214.1c-0.2,1.3-1.1,1.8-2.9,1.3c-2.7-1.1-6.9-1.8-10.2-1.8c-12,0-16,7.8-16,18v13.3c0,1.6,0.7,2.2,2,2.2h22.4
			c1.3,0,1.8,0.7,1.8,1.8v8.2c0,1.1-0.7,1.6-1.8,1.6h-22.6c-1.3,0.2-1.8,0.9-1.8,2.2v81.4c0,1.1-0.7,1.8-2,1.8h-9.8
			c-1.1,0-1.8-0.9-1.8-1.8v-81.1c0-1.3-0.2-2.2-1.8-2.4h-10.2c-1.1,0-1.6-0.4-1.6-1.8v-8c0-1.1,0.4-1.8,1.8-1.8h9.5
			c1.8,0,2.4-0.7,2.4-2.2v-15.3c0-17.1,10.2-28.2,27.3-28.2c5.5,0,11.5,0.7,15.1,1.8c1.8,0.7,2.4,1.1,1.8,2.9L635.4,214.1z"/>
		<path d="M682.6,345.4c-23.3,0-37.7-13.5-37.7-36.4v-26.8c0-22,15.1-36.4,37.7-36.4c22.4,0,37.5,13.7,37.5,36.4v26.4
			C720,331.9,705.9,345.4,682.6,345.4z M706.5,282.4c0-14.2-8.6-24.6-23.9-24.6c-15.5,0-24.2,10.2-24.2,24.4v26.6
			c0,14.9,8.6,24.8,24.2,24.8c16,0,23.7-10,23.9-24.8V282.4z"/>
		<path d="M789.2,258.5c-0.2,1.3-0.9,2-2,1.8c-1.8-0.2-3.5-0.2-5.3-0.2c-14.9,0.4-24.8,10.4-24.8,26.2v56.1c0,1.3-0.4,1.8-1.8,1.8
			h-10c-1.1,0-2-0.4-2-1.6v-93.3c0-1.3,0.7-1.8,1.8-1.8h8.6c1.3,0,1.8,0.7,1.8,1.8v10.4c0,1.8,1.3,1.8,2,0.7
			c4.9-8,14.9-14.2,26.6-14.2c1.6,0,3.1,0.2,4.9,0.4c1.3,0.2,2.4,0.7,2.2,2.2L789.2,258.5z"/>
		<path d="M839.5,345.4c-23.3,0-37.7-13.5-37.7-36.4v-26.8c0-22,15.1-36.4,37.7-36.4c22.4,0,37.5,13.7,37.5,36.4v26.4
			C877,331.9,862.8,345.4,839.5,345.4z M863.5,282.4c0-14.2-8.6-24.6-23.9-24.6c-15.5,0-24.2,10.2-24.2,24.4v26.6
			c0,14.9,8.6,24.8,24.2,24.8c16,0,23.7-10,23.9-24.8V282.4z"/>
		<path d="M928.2,345.2c-14.4,0-28.2-6.4-34.1-19.7c-0.4-0.9-0.2-1.8,0.9-2.2l8-3.8c1.3-0.7,2,0.2,2.4,1.1
			c4.2,8.2,13.5,13.5,23.7,13.5c11.5,0,19.7-6.2,19.7-14.9c0-9.5-8.2-13.3-17.3-16.9c-13.3-5.1-34.8-10.4-34.8-29.9
			c0-17.3,15.5-26.2,31.7-26.4c12,0,23.3,4,30.8,12.2c0.9,1.1,0.7,2.2-0.4,3.3l-4.4,5.1c-1.1,1.3-2.4,1.3-4-0.2
			c-6-5.3-14.2-8.9-21.9-8.9c-9.1,0-18.6,4.4-18.6,13.7c0,8.9,9.5,13.1,18.6,16.4c16,6,33.5,11.5,33.5,31
			C961.9,332.5,950.6,345.2,928.2,345.2z"/>
	</g>
	<g class="st1">
		<path d="M997.2,344.4c-3.9,0-7.6-1.7-9.3-5.3c-0.1-0.2-0.1-0.5,0.2-0.6l2.2-1c0.4-0.2,0.5,0.1,0.7,0.3c1.1,2.2,3.7,3.7,6.4,3.7
			c3.1,0,5.3-1.7,5.3-4c0-2.6-2.2-3.6-4.7-4.6c-3.6-1.4-9.4-2.8-9.4-8.1c0-4.7,4.2-7.1,8.6-7.1c3.2,0,6.3,1.1,8.4,3.3
			c0.2,0.3,0.2,0.6-0.1,0.9l-1.2,1.4c-0.3,0.4-0.7,0.4-1.1-0.1c-1.6-1.4-3.8-2.4-5.9-2.4c-2.5,0-5,1.2-5,3.7c0,2.4,2.6,3.5,5,4.4
			c4.3,1.6,9.1,3.1,9.1,8.4C1006.3,340.9,1003.3,344.4,997.2,344.4z"/>
		<path d="M1016.5,341.8c0,1.5-1.1,2.7-2.7,2.7c-1.4,0-2.6-1.3-2.6-2.7s1.2-2.6,2.6-2.6C1015.4,339.2,1016.5,340.3,1016.5,341.8z"/>
		<path d="M1031,326.4c2.2,0,4.1,0.7,5.5,1.9c0.4,0.3,0.8,0.2,0.8-0.4v-1.7c0-3.2-1.4-5.6-5.9-5.6c-1.7,0-4.7,0.6-6.3,1.4
			c-0.3,0.2-0.6,0.1-0.7-0.3l-0.8-1.9c-0.1-0.3,0-0.5,0.3-0.7c2-1.1,5.2-1.7,7.9-1.7c6.8,0,9.3,3.5,9.3,9.3v16.8
			c0,0.4-0.2,0.5-0.5,0.5h-2.5c-0.4,0-0.4-0.2-0.4-0.4v-1.7c0-0.5-0.4-0.5-0.7-0.2c-1.6,1.8-3.8,2.7-6.5,2.7c-5.8,0-9-3.7-9-9
			C1021.6,330.4,1024.9,326.4,1031,326.4z M1031.1,341.3c3.6,0,6.1-2.7,6.1-6.1c0-3.2-2.1-5.9-6-5.9c-3.8,0-6.1,2.7-6.1,6
			C1025,338.7,1026.9,341.3,1031.1,341.3z"/>
		<path d="M1052.5,341.8c0,1.5-1.1,2.7-2.7,2.7c-1.4,0-2.6-1.3-2.6-2.7s1.2-2.6,2.6-2.6C1051.4,339.2,1052.5,340.3,1052.5,341.8z"/>
	</g>
</g>
</svg>
