<?xml version="1.0" encoding="utf-8"?>
<!-- Generator: Adobe Illustrator 22.0.0, SVG Export Plug-In . SVG Version: 6.00 Build 0)  -->
<svg version="1.1" xmlns="http://www.w3.org/2000/svg" xmlns:xlink="http://www.w3.org/1999/xlink" x="0px" y="0px"
	 viewBox="0 0 609.4 609.4" style="enable-background:new 0 0 609.4 609.4;" xml:space="preserve">
<style type="text/css">
	.st0{display:none;}
	.st1{display:inline;}
</style>
<g id="Layer_1">
	<g>
		<g>
			<polygon points="476.2,342.5 320.6,376.6 367,321.7 348.3,318.2 285.5,384.3 285.5,406.6 545,355.6 			"/>
		</g>
		<g>
			<polygon points="51.4,212.3 39.9,218.3 39.9,272.3 51.4,267.1 			"/>
		</g>
		<g>
			<polygon points="560.2,322.8 399.4,283.5 437.5,238.3 427.4,235 384.7,279.9 69.5,202.8 57.2,209.3 57.2,264.5 69.3,259.1 
				560.3,352.6 			"/>
		</g>
	</g>
</g>
<g id="Layer_2" class="st0">
	<g class="st1">
		<path d="M-347.2,467.1h-10c-1.3,0-2-0.7-2-1.8v-61c0-12.9-6.4-23.5-21.9-23.5c-12,0-21.9,11.1-21.9,23.5v60.7c0,1.3-0.4,2-1.8,2
			h-9.8c-1.3,0-2-0.7-2-1.8v-61c0-12.9-8.2-23.5-21.5-23.5c-15.3,0-22.4,10.6-22.4,23.5v60.7c0,1.3-0.4,2-1.8,2h-10
			c-1.1,0-2-0.7-2-1.8v-61c0-20.8,14.9-35.3,35.3-35.3c11.1,0,21.5,4.7,28.2,13.7c0.9,1.1,1.6,1.1,2.4,0.2c6.9-8.6,17.5-14,29.3-14
			c21.1,0,33.7,14.2,33.7,35.3v60.7C-345.4,466.5-346.1,467.1-347.2,467.1z"/>
		<path d="M-252.3,421.3h-54.5c-2,0-3.3,1.3-3.3,3.3v7.3c0,13.7,9.5,24.6,24.2,24.6c9.3,0,16.6-4.2,21.5-11.1
			c1.1-1.6,2.4-1.6,3.8-0.7l6.2,4c1.6,1.1,1.8,2,1.3,3.1c-6.7,11.1-18.8,16.6-32.6,16.6c-22.8,0-37.9-14.2-37.9-35.7v-26.6
			c0-22.4,16.2-37.2,37.5-37.2c22.2,0,37.7,14.2,37.7,37.7v10C-248.5,419.5-250.5,421.3-252.3,421.3z M-262.3,404.2
			c0-13.3-9.5-23.5-23.9-23.5c-13.5,0-23.7,10.4-23.7,23.5v3.3c0,1.3,0.9,2.7,3.1,2.7h42.3c1.6,0,2.2-0.7,2.2-2.4V404.2z"/>
		<path d="M-221.9,441.6V384c0-1.3-0.7-2-2.2-2h-10.4c-1.3,0-2-0.7-2-1.8v-8c0-1.3,0.7-2,1.8-2h10.6c1.6,0,2.2-0.9,2.2-2.2v-20.4
			c0-0.9,0.4-1.8,1.8-2.2l9.5-2.2c1.6-0.4,2.2,0.7,2.2,1.8v23.3c0,1.3,0.4,2,1.8,2h22.4c1.1,0,2,0.7,2,1.8v8c0,1.3-0.7,2-2,2h-22.2
			c-1.3,0-2,0.4-2,2v55c0,11.1,3.1,17.1,12.9,17.1c3.5,0,10.4-1.1,13.5-1.8c2.7-0.7,3.1,0.4,3.3,1.8l1.3,6.9c0.4,2,0,2.2-1.6,2.9
			c-4.4,2-13.1,2.7-18.4,2.7C-216.4,468.5-221.9,457.2-221.9,441.6z"/>
		<path d="M-133.2,402c8,0,15.3,2.4,20.4,6.9c1.6,1.1,3.1,0.7,3.1-1.3v-6.2c0-12-5.3-20.6-21.9-20.6c-6.2,0-17.5,2.2-23.3,5.1
			c-1.1,0.7-2.2,0.2-2.7-1.1l-2.9-7.1c-0.4-1.1,0-2,1.1-2.4c7.5-4,19.3-6.2,29-6.2c25.3,0,34.1,12.9,34.1,34.1v62.1
			c0,1.3-0.7,2-1.8,2h-9.1c-1.3,0-1.6-0.9-1.6-1.6v-6.2c0-2-1.3-2-2.4-0.9c-5.8,6.7-14.2,10-23.9,10c-21.3,0-33-13.5-33-33
			C-168,416.8-155.9,402-133.2,402z M-133,457.2c13.3,0,22.4-10,22.4-22.4c0-12-7.8-21.9-22.2-21.9c-14.2,0-22.6,10-22.6,22.2
			C-155.4,447.4-148.5,457.2-133,457.2z"/>
		<path d="M-68.3,325.9h10c1.1,0,1.8,0.7,1.8,1.8v115.1c0,9.5,2.2,12.9,10.2,12.9h2.7c1.8,0,1.8,1.3,1.8,2.7v7.8
			c0,1.6-0.7,2.2-2,2.4c-2.2,0.2-4.2,0.2-5.1,0.2c-17.7,0-21.1-9.5-21.1-24.4V327.9C-70.1,326.8-69.6,325.9-68.3,325.9z"/>
		<path d="M-22.2,325.9h10c1.1,0,1.8,0.7,1.8,1.8v115.1c0,9.5,2.2,12.9,10.2,12.9h2.7c1.8,0,1.8,1.3,1.8,2.7v7.8
			c0,1.6-0.7,2.2-2,2.4c-2.2,0.2-4.2,0.2-5.1,0.2c-17.7,0-21.1-9.5-21.1-24.4V327.9C-23.9,326.8-23.5,325.9-22.2,325.9z"/>
		<path d="M55.9,468.5c-23.3,0-37.7-13.5-37.7-36.4v-26.8c0-22,15.1-36.4,37.7-36.4c22.4,0,37.5,13.7,37.5,36.4v26.4
			C93.3,455,79.2,468.5,55.9,468.5z M79.8,405.5c0-14.2-8.6-24.6-23.9-24.6c-15.5,0-24.2,10.2-24.2,24.4v26.6
			c0,14.9,8.6,24.8,24.2,24.8c16,0,23.7-10,23.9-24.8V405.5z"/>
		<path d="M164.1,337.2c-0.2,1.3-1.1,1.8-2.9,1.3c-2.7-1.1-6.9-1.8-10.2-1.8c-12,0-16,7.8-16,18V368c0,1.6,0.7,2.2,2,2.2h22.4
			c1.3,0,1.8,0.7,1.8,1.8v8.2c0,1.1-0.7,1.6-1.8,1.6h-22.6c-1.3,0.2-1.8,0.9-1.8,2.2v81.4c0,1.1-0.7,1.8-2,1.8h-9.8
			c-1.1,0-1.8-0.9-1.8-1.8v-81.1c0-1.3-0.2-2.2-1.8-2.4h-10.2c-1.1,0-1.6-0.4-1.6-1.8v-8c0-1.1,0.4-1.8,1.8-1.8h9.5
			c1.8,0,2.4-0.7,2.4-2.2v-15.3c0-17.1,10.2-28.2,27.3-28.2c5.5,0,11.5,0.7,15.1,1.8c1.8,0.7,2.4,1.1,1.8,2.9L164.1,337.2z"/>
		<path d="M211.3,468.5c-23.3,0-37.7-13.5-37.7-36.4v-26.8c0-22,15.1-36.4,37.7-36.4c22.4,0,37.5,13.7,37.5,36.4v26.4
			C248.8,455,234.6,468.5,211.3,468.5z M235.2,405.5c0-14.2-8.6-24.6-23.9-24.6c-15.5,0-24.2,10.2-24.2,24.4v26.6
			c0,14.9,8.6,24.8,24.2,24.8c16,0,23.7-10,23.9-24.8V405.5z"/>
		<path d="M317.9,381.6c-0.2,1.3-0.9,2-2,1.8c-1.8-0.2-3.5-0.2-5.3-0.2c-14.9,0.4-24.8,10.4-24.8,26.2v56.1c0,1.3-0.4,1.8-1.8,1.8
			h-10c-1.1,0-2-0.4-2-1.6v-93.3c0-1.3,0.7-1.8,1.8-1.8h8.6c1.3,0,1.8,0.7,1.8,1.8v10.4c0,1.8,1.3,1.8,2,0.7
			c4.9-8,14.9-14.2,26.6-14.2c1.6,0,3.1,0.2,4.9,0.4c1.3,0.2,2.4,0.7,2.2,2.2L317.9,381.6z"/>
		<path d="M368.3,468.5c-23.3,0-37.7-13.5-37.7-36.4v-26.8c0-22,15.1-36.4,37.7-36.4c22.4,0,37.5,13.7,37.5,36.4v26.4
			C405.7,455,391.5,468.5,368.3,468.5z M392.2,405.5c0-14.2-8.6-24.6-23.9-24.6c-15.5,0-24.2,10.2-24.2,24.4v26.6
			c0,14.9,8.6,24.8,24.2,24.8c16,0,23.7-10,23.9-24.8V405.5z"/>
		<path d="M457,468.3c-14.4,0-28.2-6.4-34.1-19.7c-0.4-0.9-0.2-1.8,0.9-2.2l8-3.8c1.3-0.7,2,0.2,2.4,1.1
			c4.2,8.2,13.5,13.5,23.7,13.5c11.5,0,19.7-6.2,19.7-14.9c0-9.5-8.2-13.3-17.3-16.9c-13.3-5.1-34.8-10.4-34.8-29.9
			c0-17.3,15.5-26.2,31.7-26.4c12,0,23.3,4,30.8,12.2c0.9,1.1,0.7,2.2-0.4,3.3l-4.4,5.1c-1.1,1.3-2.4,1.3-4-0.2
			c-6-5.3-14.2-8.9-21.9-8.9c-9.1,0-18.6,4.4-18.6,13.7c0,8.9,9.5,13.1,18.6,16.4c16,6,33.5,11.5,33.5,31
			C490.7,455.6,479.3,468.3,457,468.3z"/>
	</g>
	<g class="st1">
		<path d="M525.9,467.4c-3.9,0-7.6-1.7-9.3-5.3c-0.1-0.2-0.1-0.5,0.2-0.6l2.2-1c0.4-0.2,0.5,0.1,0.7,0.3c1.1,2.2,3.7,3.7,6.4,3.7
			c3.1,0,5.3-1.7,5.3-4c0-2.6-2.2-3.6-4.7-4.6c-3.6-1.4-9.4-2.8-9.4-8.1c0-4.7,4.2-7.1,8.6-7.1c3.2,0,6.3,1.1,8.4,3.3
			c0.2,0.3,0.2,0.6-0.1,0.9l-1.2,1.4c-0.3,0.4-0.7,0.4-1.1-0.1c-1.6-1.4-3.8-2.4-5.9-2.4c-2.5,0-5,1.2-5,3.7c0,2.4,2.6,3.5,5,4.4
			c4.3,1.6,9.1,3.1,9.1,8.4C535,464,532,467.4,525.9,467.4z"/>
		<path d="M545.3,464.9c0,1.5-1.1,2.7-2.7,2.7c-1.4,0-2.6-1.3-2.6-2.7c0-1.4,1.2-2.6,2.6-2.6C544.1,462.3,545.3,463.4,545.3,464.9z"
			/>
		<path d="M559.7,449.5c2.2,0,4.1,0.7,5.5,1.9c0.4,0.3,0.8,0.2,0.8-0.4v-1.7c0-3.2-1.4-5.6-5.9-5.6c-1.7,0-4.7,0.6-6.3,1.4
			c-0.3,0.2-0.6,0.1-0.7-0.3l-0.8-1.9c-0.1-0.3,0-0.5,0.3-0.7c2-1.1,5.2-1.7,7.9-1.7c6.8,0,9.3,3.5,9.3,9.3v16.8
			c0,0.4-0.2,0.5-0.5,0.5h-2.5c-0.4,0-0.4-0.2-0.4-0.4V465c0-0.5-0.4-0.5-0.7-0.2c-1.6,1.8-3.8,2.7-6.5,2.7c-5.8,0-9-3.7-9-9
			C550.3,453.5,553.6,449.5,559.7,449.5z M559.8,464.4c3.6,0,6.1-2.7,6.1-6.1c0-3.2-2.1-5.9-6-5.9c-3.8,0-6.1,2.7-6.1,6
			C553.7,461.8,555.6,464.4,559.8,464.4z"/>
		<path d="M581.2,464.9c0,1.5-1.1,2.7-2.7,2.7c-1.4,0-2.6-1.3-2.6-2.7c0-1.4,1.2-2.6,2.6-2.6C580.1,462.3,581.2,463.4,581.2,464.9z"
			/>
	</g>
</g>
</svg>
